<svg xmlns="http://www.w3.org/2000/svg" width="27pt" height="27pt" viewBox="0 0 27 27">
    <defs>
        <symbol id="cat_arm">
        <path style=" stroke:none;fill-rule:nonzero;fill:rgb(0%,0%,0%);fill-opacity:1;" d="M 18.054688 14.308594 C 16.839844 12.414062 14.769531 11.28125 12.519531 11.28125 C 10.269531 11.28125 8.199219 12.414062 6.984375 14.308594 L 4.058594 18.875 C 3.570312 19.632812 3.347656 20.507812 3.410156 21.40625 C 3.472656 22.304688 3.8125 23.140625 4.398438 23.828125 C 4.984375 24.511719 5.757812 24.980469 6.632812 25.179688 C 7.511719 25.378906 8.410156 25.292969 9.234375 24.933594 L 9.289062 24.90625 C 11.363281 24.015625 13.734375 24.023438 15.804688 24.933594 C 16.339844 25.167969 16.902344 25.285156 17.472656 25.285156 C 17.785156 25.285156 18.097656 25.25 18.40625 25.179688 C 19.285156 24.980469 20.058594 24.511719 20.640625 23.828125 C 21.226562 23.144531 21.570312 22.304688 21.632812 21.40625 C 21.691406 20.507812 21.46875 19.632812 20.984375 18.875 Z M 18.054688 14.308594 "/>
        <path style=" stroke:none;fill-rule:nonzero;fill:rgb(0%,0%,0%);fill-opacity:1;" d="M 4.847656 14.304688 C 5.71875 13.96875 6.378906 13.265625 6.710938 12.328125 C 7.023438 11.433594 6.996094 10.421875 6.636719 9.484375 C 6.273438 8.546875 5.617188 7.777344 4.785156 7.324219 C 3.910156 6.851562 2.945312 6.773438 2.078125 7.109375 C 0.328125 7.78125 -0.472656 9.941406 0.289062 11.925781 C 0.898438 13.507812 2.320312 14.503906 3.753906 14.503906 C 4.121094 14.503906 4.492188 14.441406 4.847656 14.304688 Z M 4.847656 14.304688 "/>
        <path style=" stroke:none;fill-rule:nonzero;fill:rgb(0%,0%,0%);fill-opacity:1;" d="M 10.527344 10.726562 C 12.714844 10.726562 14.492188 8.699219 14.492188 6.207031 C 14.492188 3.714844 12.714844 1.6875 10.527344 1.6875 C 8.339844 1.6875 6.5625 3.714844 6.5625 6.207031 C 6.5625 8.699219 8.339844 10.726562 10.527344 10.726562 Z M 10.527344 10.726562 "/>
        <path style=" stroke:none;fill-rule:nonzero;fill:rgb(0%,0%,0%);fill-opacity:1;" d="M 17.375 11.835938 C 17.710938 11.945312 18.054688 12 18.398438 12 C 19.992188 12 21.546875 10.839844 22.140625 9.054688 C 22.480469 8.027344 22.457031 6.941406 22.074219 6 C 21.675781 5.011719 20.933594 4.292969 19.988281 3.976562 C 19.042969 3.664062 18.019531 3.792969 17.105469 4.347656 C 16.234375 4.875 15.566406 5.730469 15.226562 6.757812 C 14.503906 8.925781 15.46875 11.203125 17.375 11.835938 Z M 17.375 11.835938 "/>
        <path style=" stroke:none;fill-rule:nonzero;fill:rgb(0%,0%,0%);fill-opacity:1;" d="M 25.726562 11.308594 C 24.21875 10.195312 21.964844 10.675781 20.699219 12.382812 C 19.4375 14.09375 19.632812 16.390625 21.140625 17.503906 C 21.6875 17.914062 22.335938 18.105469 23 18.105469 C 24.160156 18.105469 25.363281 17.515625 26.167969 16.429688 C 27.429688 14.722656 27.234375 12.421875 25.726562 11.308594 Z M 25.726562 11.308594 "/>
        </symbol>

        <symbol id="view" x="0px" y="0px" viewBox="0 0 461.312 461.312" style="enable-background:new 0 0 461.312 461.312;">
            <path style="fill:#2F2E41" d="M230.656,156.416c-40.96,0-74.24,33.28-74.24,74.24s33.28,74.24,74.24,74.24s74.24-33.28,74.24-74.24
            S271.616,156.416,230.656,156.416z M225.024,208.64c-9.216,0-16.896,7.68-16.896,16.896h-24.576
            c0.512-23.04,18.944-41.472,41.472-41.472V208.64z"/>
            <path style="fill:#2F2E41" d="M455.936,215.296c-25.088-31.232-114.688-133.12-225.28-133.12S30.464,184.064,5.376,215.296
            c-7.168,8.704-7.168,21.504,0,30.72c25.088,31.232,114.688,133.12,225.28,133.12s200.192-101.888,225.28-133.12
            C463.104,237.312,463.104,224.512,455.936,215.296z M230.656,338.176c-59.392,0-107.52-48.128-107.52-107.52
            s48.128-107.52,107.52-107.52s107.52,48.128,107.52,107.52S290.048,338.176,230.656,338.176z"/>
        </symbol>

        <symbol id="view-close" viewBox="0 0 36 36" version="1.1">
        <path style=" stroke:none;fill-rule:nonzero;fill:#2F2E41;fill-opacity:1;" d="M 17.726562 12.296875 L 22.878906 17.453125 L 22.902344 17.183594 C 22.902344 14.472656 20.703125 12.273438 17.996094 12.273438 Z M 17.726562 12.296875 "/>
        <path style=" stroke:none;fill-rule:nonzero;fill:#2F2E41;fill-opacity:1;" d="M 17.996094 9.003906 C 22.511719 9.003906 26.175781 12.667969 26.175781 17.183594 C 26.175781 18.238281 25.964844 19.242188 25.59375 20.167969 L 30.378906 24.953125 C 32.851562 22.890625 34.796875 20.226562 36 17.183594 C 33.160156 10 26.183594 4.914062 17.996094 4.914062 C 15.707031 4.914062 13.511719 5.320312 11.476562 6.058594 L 15.011719 9.582031 C 15.933594 9.222656 16.941406 9.003906 17.996094 9.003906 Z M 17.996094 9.003906 "/>
        <path style=" stroke:none;fill-rule:nonzero;fill:#2F2E41;fill-opacity:1;" d="M 1.636719 4.542969 L 5.367188 8.273438 L 6.109375 9.019531 C 3.410156 11.128906 1.277344 13.933594 0 17.183594 C 2.832031 24.363281 9.816406 29.453125 17.996094 29.453125 C 20.53125 29.453125 22.953125 28.960938 25.167969 28.070312 L 25.863281 28.765625 L 30.632812 33.542969 L 32.71875 31.464844 L 3.722656 2.457031 Z M 10.683594 13.582031 L 13.210938 16.109375 C 13.136719 16.460938 13.089844 16.8125 13.089844 17.183594 C 13.089844 19.890625 15.289062 22.089844 17.996094 22.089844 C 18.363281 22.089844 18.714844 22.039062 19.058594 21.96875 L 21.585938 24.496094 C 20.5 25.035156 19.289062 25.363281 17.996094 25.363281 C 13.480469 25.363281 9.816406 21.699219 9.816406 17.183594 C 9.816406 15.890625 10.144531 14.679688 10.683594 13.582031 Z M 10.683594 13.582031 "/>
        </symbol>
    </defs>
</svg>
